<?xml version="1.0" standalone="no"?>
<!DOCTYPE svg PUBLIC "-//W3C//DTD SVG 20010904//EN"
 "http://www.w3.org/TR/2001/REC-SVG-20010904/DTD/svg10.dtd">
<svg version="1.0" xmlns="http://www.w3.org/2000/svg"
 width="836.000000pt" height="836.000000pt" viewBox="0 0 836.000000 836.000000"
 preserveAspectRatio="xMidYMid meet">
<metadata>
Created by potrace 1.11, written by Peter Selinger 2001-2013
</metadata>
<g transform="translate(0.000000,836.000000) scale(0.100000,-0.100000)"
fill="#000000" stroke="none">
<path d="M2651 8338 c-73 -28 -142 -97 -169 -171 -21 -56 -22 -62 -22 -988 0
-512 -2 -934 -5 -938 -2 -4 -399 -8 -883 -8 -483 0 -891 -4 -907 -8 -17 -5
-32 -9 -35 -10 -66 -22 -139 -87 -172 -153 l-23 -47 0 -2890 c0 -1589 3 -2901
7 -2913 11 -36 53 -104 80 -129 13 -12 46 -35 73 -50 l50 -28 933 -3 932 -3 0
296 c0 229 -3 295 -12 296 -7 1 -341 2 -743 2 l-730 2 0 2522 0 2522 126 -1
c69 -1 131 2 137 6 6 3 13 3 16 -2 5 -9 70 -7 86 3 6 3 10 3 10 -2 0 -9 180
-9 204 0 8 3 18 3 20 -2 5 -8 71 -5 86 4 6 3 10 3 10 -2 0 -9 180 -9 204 0 8
3 18 3 20 -2 5 -8 71 -5 86 4 6 3 10 3 10 -2 0 -9 180 -9 204 0 8 3 18 3 20
-2 5 -8 71 -5 86 4 6 3 10 3 10 -2 0 -9 180 -9 203 0 7 3 20 2 27 -3 7 -4 26
-4 41 0 16 5 31 5 33 2 4 -7 22 -7 123 1 82 7 165 58 213 129 24 36 42 77 46
106 4 26 8 461 8 967 l1 920 1286 1 1287 0 0 -1490 c1 -820 3 -1501 6 -1512
19 -88 90 -173 174 -211 l57 -26 733 0 c402 0 733 -3 733 -6 1 -3 2 -887 3
-1963 1 -1335 -2 -1959 -9 -1961 -5 -2 -712 -3 -1570 -3 l-1560 1 -1 1085 -1
1085 -298 3 c-262 2 -297 1 -291 -13 3 -8 2 -15 -2 -15 -10 0 -7 -164 3 -180
5 -7 4 -11 -1 -8 -11 7 -11 -242 -1 -259 4 -7 4 -14 0 -16 -10 -6 -9 -129 0
-144 4 -7 4 -14 0 -16 -10 -6 -9 -289 0 -305 4 -6 4 -13 0 -15 -6 -4 -9 -302
-3 -302 1 0 3 -8 5 -17 2 -10 0 -18 -3 -18 -10 0 -7 -165 3 -180 5 -7 4 -11
-1 -8 -10 7 -11 -242 -1 -259 4 -5 4 -13 0 -16 -9 -10 -9 -138 0 -144 4 -2 4
-9 0 -16 -9 -15 -10 -115 -1 -149 3 -16 4 -28 0 -28 -10 0 -7 -164 3 -180 5
-7 4 -11 -1 -7 -5 3 -8 -22 -7 -56 3 -65 3 -99 1 -119 -2 -24 11 -84 27 -121
28 -68 107 -139 185 -166 8 -3 882 -7 1942 -8 l1927 -3 56 21 c83 31 157 109
183 192 4 12 7 1070 7 2352 0 1989 -2 2334 -14 2360 -8 17 -15 33 -15 37 -3
25 -84 100 -132 124 -57 28 -134 38 -254 33 -8 0 -40 0 -70 0 -30 0 -62 0 -70
0 -8 0 -31 0 -50 0 -19 1 -42 1 -50 0 -8 0 -41 0 -72 1 -31 1 -61 -1 -67 -4
-5 -4 -12 -2 -16 3 -3 6 -15 7 -28 2 -12 -5 -31 -5 -42 -1 -11 4 -33 4 -50 0
-16 -3 -44 -3 -61 0 -16 4 -38 4 -49 0 -10 -3 -37 -4 -59 0 -23 3 -54 3 -71 0
-16 -3 -44 -3 -60 0 -17 4 -39 4 -49 0 -11 -3 -38 -4 -60 0 -23 3 -56 3 -74
-1 -18 -4 -35 -3 -38 2 -3 5 -10 7 -15 3 -6 -3 -36 -5 -67 -5 -31 1 -68 1 -82
0 -14 0 -32 0 -40 0 -8 1 -22 2 -31 2 -15 0 -16 128 -17 1492 0 1043 -3 1500
-11 1520 -6 15 -8 27 -5 27 8 0 -22 53 -46 80 -12 14 -25 30 -28 35 -11 17
-70 55 -85 55 -7 0 -19 6 -25 13 -10 9 -359 12 -1665 14 l-1652 2 -54 -21z"/>
<path d="M3899 5473 c-13 -16 -40 -48 -59 -73 -19 -24 -41 -50 -47 -58 -12
-12 -35 -48 -106 -159 -15 -24 -27 -47 -27 -53 0 -5 -5 -10 -12 -10 -6 0 -8
-3 -5 -6 4 -4 -4 -28 -18 -53 -43 -82 -103 -271 -119 -376 -2 -16 -7 -49 -11
-73 -8 -52 -9 -271 -1 -327 14 -101 19 -131 23 -150 2 -11 7 -33 10 -50 7 -38
9 -46 15 -65 3 -8 20 -59 37 -114 65 -197 180 -424 303 -590 l50 -69 64 99
c36 54 74 119 86 144 12 25 26 48 31 51 5 3 8 8 7 10 -1 2 13 36 30 74 18 39
33 75 34 80 2 6 8 24 15 40 50 127 90 287 108 430 9 76 9 309 0 400 -7 65 -10
86 -22 147 -2 13 -7 38 -10 57 -4 18 -24 86 -46 150 -21 64 -41 123 -43 133
-3 9 -19 45 -36 80 -17 34 -30 63 -29 63 9 0 -121 218 -133 223 -5 2 -8 9 -8
15 -1 15 -35 57 -47 57 -4 0 -20 -12 -34 -27z"/>
<path d="M2128 4055 c-2 -2 -71 -12 -99 -14 -9 -1 2 -50 12 -57 5 -3 9 -12 9
-20 0 -22 94 -207 140 -277 22 -32 40 -63 40 -67 0 -5 3 -10 8 -12 4 -1 24
-25 46 -53 68 -88 239 -248 326 -306 70 -47 225 -136 225 -130 0 2 65 -23 100
-39 41 -18 96 -33 220 -60 130 -28 147 -30 282 -36 l122 -5 -24 68 c-34 99
-49 137 -57 148 -4 6 -29 51 -54 100 -60 116 -145 242 -209 311 -11 11 -34 36
-51 55 -53 59 -179 169 -193 169 -5 0 -14 7 -21 15 -7 8 -24 21 -39 29 -14 7
-55 29 -91 49 -74 39 -222 92 -301 107 -30 6 -67 13 -84 16 -30 6 -302 13
-307 9z"/>
<path d="M5405 4049 c-100 -15 -121 -19 -175 -35 -30 -8 -72 -20 -92 -26 -21
-6 -38 -15 -38 -20 0 -5 -4 -7 -8 -4 -9 5 -110 -42 -137 -64 -10 -8 -20 -14
-21 -13 -6 4 -64 -32 -64 -39 0 -5 -7 -8 -15 -8 -8 0 -15 -4 -15 -10 0 -5 -5
-10 -10 -10 -24 0 -210 -182 -281 -275 -87 -113 -219 -339 -231 -395 -2 -8 -6
-17 -9 -20 -7 -7 -49 -125 -49 -140 0 -10 26 -11 118 -6 64 3 126 8 137 10 11
2 43 7 70 10 28 4 68 12 90 18 22 6 49 12 60 14 31 4 176 54 218 75 20 11 37
17 37 14 0 -2 23 9 50 25 28 17 53 30 56 30 8 0 171 113 213 147 78 64 271
276 271 298 0 3 8 15 19 26 47 51 202 371 187 386 -15 15 -299 24 -381 12z"/>
<path d="M2368 2795 c-2 -1 -37 -5 -78 -9 -98 -7 -119 -12 -220 -46 -149 -49
-301 -145 -422 -264 l-30 -29 25 -21 c63 -53 86 -71 147 -111 36 -23 92 -57
125 -74 67 -34 205 -92 205 -86 0 3 12 0 28 -6 46 -18 90 -27 172 -36 154 -17
304 -5 440 33 30 9 57 16 60 16 3 0 22 9 43 19 20 11 37 17 37 14 0 -16 319
169 334 194 3 4 2 11 -2 17 -14 19 -170 144 -181 144 -6 0 -11 4 -11 8 0 5
-10 14 -22 20 -13 6 -41 23 -63 36 -34 22 -120 66 -135 71 -3 1 -23 9 -45 19
-60 27 -183 65 -229 71 -23 3 -63 8 -91 11 -27 3 -58 6 -67 8 -9 2 -18 3 -20
1z"/>
<path d="M5250 2770 c-104 -22 -212 -60 -305 -108 -85 -44 -179 -101 -183
-113 -2 -5 -8 -9 -14 -9 -9 0 -178 -137 -178 -144 0 -4 124 -91 130 -91 3 0
24 -13 48 -28 34 -22 142 -77 162 -82 3 -1 12 -5 20 -8 36 -16 130 -45 130
-41 0 3 8 0 18 -5 52 -28 275 -44 417 -29 91 9 219 45 327 92 21 9 41 16 44
15 4 0 10 3 13 8 3 4 22 16 41 27 97 52 182 110 245 169 l30 28 -40 35 c-85
76 -97 85 -160 129 -79 54 -186 106 -278 135 -91 29 -103 31 -252 35 -99 3
-151 -1 -215 -15z"/>
</g>
</svg>
