<?xml version="1.0" encoding="UTF-8" standalone="no"?>
<svg
   xmlns:dc="http://purl.org/dc/elements/1.1/"
   xmlns:cc="http://creativecommons.org/ns#"
   xmlns:rdf="http://www.w3.org/1999/02/22-rdf-syntax-ns#"
   xmlns:svg="http://www.w3.org/2000/svg"
   xmlns="http://www.w3.org/2000/svg"
   viewBox="0 0 187.46375 209.12625"
   height="209.12625"
   width="187.46375"
   xml:space="preserve"
   version="1.1"
   id="svg2"><metadata
     id="metadata8"><rdf:RDF><cc:Work
         rdf:about=""><dc:format>image/svg+xml</dc:format><dc:type
           rdf:resource="http://purl.org/dc/dcmitype/StillImage" /><dc:title></dc:title></cc:Work></rdf:RDF></metadata><defs
     id="defs6"><clipPath
       id="clipPath16"
       clipPathUnits="userSpaceOnUse"><path
         id="path18"
         d="M 0,980 1260,980 1260,0 0,0 0,980 Z" /></clipPath></defs><g
     transform="matrix(1.25,0,0,-1.25,-454.54713,765.383)"
     id="g10"><g
       id="g12"><g
         clip-path="url(#clipPath16)"
         id="g14"><g
           transform="translate(507.6687,445.0054)"
           id="g52"><path
             id="path54"
             style="fill:#8cc63f;fill-opacity:1;fill-rule:nonzero;stroke:none"
             d="m 0,0 -74.742,0 c -3.28,0 -5.939,2.66 -5.939,5.94 l 0,49.496 11.879,0 0,-43.557 62.862,0 0,78.701 -28.213,0 c -3.28,0 -5.94,2.66 -5.94,5.94 l 0,58.902 -51.472,0 0,-36.629 c 0,-3.28 -2.659,-5.939 -5.939,-5.939 l -34.648,0 0,-100.975 29.698,0 0,-11.879 -35.638,0 c -3.28,0 -5.939,2.66 -5.939,5.94 l 0,112.853 c 0,3.281 2.659,5.94 5.939,5.94 l 34.648,0 0,36.629 c 0,3.28 2.66,5.939 5.94,5.939 l 63.351,0 c 3.28,0 5.94,-2.659 5.94,-5.939 l 0,-58.903 28.213,0 c 3.28,0 5.94,-2.659 5.94,-5.939 l 0,-90.58 C 5.94,2.66 3.28,0 0,0" /></g><g
           transform="translate(433.6715,510.0043)"
           id="g56"><path
             id="path58"
             style="fill:#39b54a;fill-opacity:1;fill-rule:nonzero;stroke:none"
             d="M 0,0 C 0,0 -20.096,23.695 0,45.29 0,45.29 17.396,24.595 0,0" /></g><g
           transform="translate(440.1123,504.6391)"
           id="g60"><path
             id="path62"
             style="fill:#39b54a;fill-opacity:1;fill-rule:nonzero;stroke:none"
             d="M 0,0 C 0,0 6.668,24.754 30.753,21.233 30.753,21.233 24.856,-0.282 0,0" /></g><g
           transform="translate(446.3791,492.9263)"
           id="g64"><path
             id="path66"
             style="fill:#39b54a;fill-opacity:1;fill-rule:nonzero;stroke:none"
             d="M 0,0 C 0,0 16.465,17.143 32.533,1.09 32.533,1.09 18.147,-13.754 0,0" /></g><g
           transform="translate(426.197,504.6391)"
           id="g68"><path
             id="path70"
             style="fill:#39b54a;fill-opacity:1;fill-rule:nonzero;stroke:none"
             d="m 0,0 c 0,0 -6.668,24.754 -30.753,21.233 0,0 5.897,-21.515 30.753,-21.233" /></g><g
           transform="translate(419.9302,492.9263)"
           id="g72"><path
             id="path74"
             style="fill:#39b54a;fill-opacity:1;fill-rule:nonzero;stroke:none"
             d="m 0,0 c 0,0 -16.465,17.143 -32.533,1.09 0,0 14.386,-14.844 32.533,-1.09" /></g></g></g></g></svg>