<?xml version="1.0" encoding="UTF-8" standalone="no"?>
<svg
   xmlns:dc="http://purl.org/dc/elements/1.1/"
   xmlns:cc="http://creativecommons.org/ns#"
   xmlns:rdf="http://www.w3.org/1999/02/22-rdf-syntax-ns#"
   xmlns:svg="http://www.w3.org/2000/svg"
   xmlns="http://www.w3.org/2000/svg"
   enable-background="new"
   height="84.000282"
   width="82.000038"
   id="svg2"
   viewBox="0 0 82.000038 84.000282"
   y="0px"
   x="0px"
   version="1.1">
  <metadata
     id="metadata16">
    <rdf:RDF>
      <cc:Work
         rdf:about="">
        <dc:format>image/svg+xml</dc:format>
        <dc:type
           rdf:resource="http://purl.org/dc/dcmitype/StillImage" />
        <dc:title></dc:title>
      </cc:Work>
    </rdf:RDF>
  </metadata>
  <defs
     id="defs14" />
  <g
     style="opacity:0.105"
     transform="translate(-7.7287938,-19.44054)"
     id="layer2">
    <path
       style="color:#000000;text-indent:0;text-transform:none;direction:ltr;block-progression:tb;baseline-shift:baseline;display:inline;overflow:visible;visibility:visible;fill:#000000;fill-opacity:1;stroke:none;marker:none;enable-background:accumulate"
       d="m 48.728814,19.44054 c -0.33483,0 -0.66251,0.023 -0.99544,0.031 l 0,9.0269 1.99089,0 0,-9.0269 c -0.33293,-0.01 -0.66061,-0.031 -0.99545,-0.031 z m -17.35812,3.8238 c -0.60585,0.2793 -1.21439,0.5705 -1.80425,0.8776 l 4.85281,8.4628 1.74203,-1.003 -4.79059,-8.3374 z m 34.71625,0 -4.79059,8.3374 1.74203,1.003 4.85281,-8.4628 c -0.58986,-0.3071 -1.1984,-0.5983 -1.80425,-0.8776 z m -17.35813,10.2493 c -14.32621,0 -24.7002,12.3616 -21.96207,26.73578 -6.76094,2.2293 -13.28953,5.4593 -19.0379502,9.5597 0.13838,0.7069 0.29366,1.4064 0.46662,2.1 5.6778302,-4.1635 12.2434402,-7.4306 19.0379402,-9.6851 -6.32183,6.4996 -11.69477,12.6639 -15.33612,19.3075 0.37012,0.6935 0.7752,1.3679 1.18209,2.0373 3.78316,-7.3734 10.16996,-14.8721 17.54478,-22.379 4.35377,-1.2179 8.75543,-2.0229 13.03415,-2.38208 -11.16198,9.76288 -16.60498,22.83288 -18.63355,37.48648 0.5968,0.4142 1.21664,0.8078 1.83536,1.191 1.86681,-14.5959 7.07145,-27.3791 17.88696,-36.9537 -3.28743,11.3825 -4.84337,28.714 -4.04401,42.4075 0.66974,0.131 1.34122,0.2463 2.02201,0.3447 -0.91399,-14.5592 1.02373,-33.8388 4.72838,-44.66418 0.42672,-0.01 0.85247,-0.031 1.27541,-0.031 l 0.0311,0 c 3.72405,10.85848 5.63574,30.26278 4.69727,44.85228 0.67351,-0.077 1.35862,-0.1739 2.02201,-0.2821 0.83665,-13.8538 -0.73809,-31.5042 -4.10623,-42.9403 11.13978,9.6829 16.41216,22.7152 18.26026,37.6119 l 0.52883,-0.063 c 0.46197,-0.2782 0.91857,-0.5821 1.36874,-0.8776 -1.96584,-14.9258 -7.42966,-28.2431 -18.78908,-38.14478 4.16614,0.28 8.45475,0.99308 12.72307,2.09998 7.70395,7.8096 14.39493,15.5929 18.19804,23.2567 l 0.59104,-0.2821 c 0.27858,-0.4515 0.54693,-0.9162 0.80881,-1.3791 -3.61685,-6.9792 -9.17347,-13.6719 -15.74053,-20.4984 7.11449,2.2605 14.01128,5.6203 19.94007,9.9671 0.17296,-0.6936 0.32824,-1.3931 0.46662,-2.1 -5.74842,-4.1004 -12.27701,-7.3304 -19.03795,-9.5597 2.73813,-14.37418 -7.63586,-26.73578 -21.96207,-26.73578 z m 0,2.006 c 13.1273,0 22.44838,10.9733 20.06451,24.13428 -6.71128,-2.01868 -13.59271,-3.07168 -20.06451,-3.07168 -6.47179,0 -13.35322,1.053 -20.0645,3.07168 -2.38387,-13.16098 6.93721,-24.13428 20.0645,-24.13428 z m -31.38772,0.6268 -0.99545,1.724 8.61685,5.0149 0.99545,-1.724 -8.61685,-5.0149 z m 62.77545,0 -8.61685,5.0149 0.99545,1.724 8.61685,-5.0149 -0.99545,-1.724 z m -68.21931,18.4299 0,2.0059 9.95448,0 0,-2.0059 -9.95448,0 z m 63.70869,0 0,2.0059 9.95448,0 0,-2.0059 -9.95448,0 z"
       visibility="visible"
       display="inline"
       overflow="visible"
       id="path6" />
  </g>
</svg>
