<?xml version="1.0" encoding="UTF-8" standalone="no"?>
<svg
   xmlns:dc="http://purl.org/dc/elements/1.1/"
   xmlns:cc="http://creativecommons.org/ns#"
   xmlns:rdf="http://www.w3.org/1999/02/22-rdf-syntax-ns#"
   xmlns:svg="http://www.w3.org/2000/svg"
   xmlns="http://www.w3.org/2000/svg"
   height="16"
   width="16"
   id="svg2"
   xml:space="preserve"
   viewBox="0 0 16 16"
   y="0px"
   x="0px"
   version="1.1"><title
     id="title4140">Accounting</title><metadata
     id="metadata28"><rdf:RDF><cc:Work
         rdf:about=""><dc:format>image/svg+xml</dc:format><dc:type
           rdf:resource="http://purl.org/dc/dcmitype/StillImage" /><dc:title>Accounting</dc:title><cc:license
           rdf:resource="http://creativecommons.org/licenses/by/3.0/" /><dc:source>https://thenounproject.com/icon/1137184/</dc:source><dc:creator><cc:Agent><dc:title>Symbolon</dc:title></cc:Agent></dc:creator></cc:Work><cc:License
         rdf:about="http://creativecommons.org/licenses/by/3.0/"><cc:permits
           rdf:resource="http://creativecommons.org/ns#Reproduction" /><cc:permits
           rdf:resource="http://creativecommons.org/ns#Distribution" /><cc:requires
           rdf:resource="http://creativecommons.org/ns#Notice" /><cc:requires
           rdf:resource="http://creativecommons.org/ns#Attribution" /><cc:permits
           rdf:resource="http://creativecommons.org/ns#DerivativeWorks" /></cc:License></rdf:RDF></metadata><defs
     id="defs26" /><path
     d="m 8.1905,9.6745 -2.542,0 -0.2075,0 -0.174,0 c -0.345,0 -0.625,0.28 -0.625,0.625 0,0.345 0.28,0.625 0.625,0.625 l 0.174,0 0.2075,0 2.542,0 c 0.345,0 0.625,-0.28 0.625,-0.625 0,-0.345 -0.2795,-0.625 -0.625,-0.625 z"
     id="path6"
     style="fill:#000000" /><path
     d="m 5.267,8.3865 0.3815,0 c 0.345,0 0.625,-0.28 0.625,-0.625 0,-0.345 -0.28,-0.625 -0.625,-0.625 l -0.3815,0 c -0.345,0 -0.625,0.28 -0.625,0.625 0,0.345 0.28,0.625 0.625,0.625 z"
     id="path8"
     style="fill:#000000" /><path
     d="m 8.1905,7.1365 -0.3815,0 c -0.345,0 -0.625,0.28 -0.625,0.625 0,0.345 0.28,0.625 0.625,0.625 l 0.3815,0 c 0.345,0 0.625,-0.28 0.625,-0.625 0,-0.345 -0.2795,-0.625 -0.625,-0.625 z"
     id="path10"
     style="fill:#000000" /><path
     d="m 10.733,7.1365 -0.3815,0 c -0.345,0 -0.625,0.28 -0.625,0.625 0,0.345 0.28,0.625 0.625,0.625 l 0.3815,0 c 0.345,0 0.625,-0.28 0.625,-0.625 0,-0.345 -0.28,-0.625 -0.625,-0.625 z"
     id="path12"
     style="fill:#000000" /><path
     d="m 8.1905,12.212 -2.542,0 -0.3815,0 c -0.345,0 -0.625,0.28 -0.625,0.625 0,0.345 0.28,0.625 0.625,0.625 l 0.3815,0 2.542,0 c 0.345,0 0.625,-0.28 0.625,-0.625 0,-0.345 -0.2795,-0.625 -0.625,-0.625 z"
     id="path14"
     style="fill:#000000" /><path
     d="m 10.542,9.6745 c -0.345,0 -0.625,0.28 -0.625,0.625 l 0,2.5375 c 0,0.345 0.28,0.625 0.625,0.625 0.345,0 0.625,-0.28 0.625,-0.625 l 0,-2.5375 c 0,-0.3455 -0.2795,-0.625 -0.625,-0.625 z"
     id="path16"
     style="fill:#000000" /><path
     d="m 13.275,2.061 -3.3735,0 C 9.814,1.7055 9.8875,1.3185 10.1305,1.021 10.2835,0.834 10.315,0.5755 10.212,0.3575 10.1085,0.139 9.8885,0 9.647,0 L 6.353,0 C 6.1655,0 5.9885,0.084 5.8695,0.229 5.439,0.755 5.2685,1.4195 5.3435,2.061 l -2.6185,0 C 2.38,2.061 2.1,2.341 2.1,2.686 l 0,12.689 C 2.1,15.72 2.38,16 2.725,16 l 10.55,0 C 13.62,16 13.9,15.72 13.9,15.375 l 0,-12.689 C 13.9,2.3405 13.6205,2.061 13.275,2.061 Z M 6.689,1.25 8.67,1.25 C 8.5145,1.961 8.679,2.729 9.163,3.3205 9.462,3.6855 9.511,4.1885 9.31,4.599 l -1.98,0 C 7.4855,3.888 7.3205,3.12 6.8365,2.5285 6.5375,2.1635 6.4885,1.6605 6.689,1.25 Z m 5.961,13.5 -9.3,0 0,-11.439 2.513,0 C 5.8655,3.314 5.867,3.3175 5.8695,3.3205 6.169,3.686 6.214,4.1885 6.0125,4.599 l -0.745,0 c -0.345,0 -0.625,0.28 -0.625,0.625 0,0.345 0.28,0.625 0.625,0.625 l 1.0855,0 3.294,0 1.086,0 c 0.345,0 0.625,-0.28 0.625,-0.625 0,-0.345 -0.28,-0.625 -0.625,-0.625 l -0.116,0 C 10.7105,4.1725 10.692,3.728 10.5555,3.311 l 2.0945,0 0,11.439 z"
     id="path18"
     style="fill:#000000" /></svg>