<?xml version="1.0" encoding="UTF-8" standalone="no"?>
<svg
   xmlns:dc="http://purl.org/dc/elements/1.1/"
   xmlns:cc="http://creativecommons.org/ns#"
   xmlns:rdf="http://www.w3.org/1999/02/22-rdf-syntax-ns#"
   xmlns:svg="http://www.w3.org/2000/svg"
   xmlns="http://www.w3.org/2000/svg"
   height="16"
   width="11.8"
   id="svg2"
   xml:space="preserve"
   viewBox="0 0 11.8 16"
   y="0px"
   x="0px"
   version="1.1"><metadata
     id="metadata28"><rdf:RDF><cc:Work
         rdf:about=""><dc:format>image/svg+xml</dc:format><dc:type
           rdf:resource="http://purl.org/dc/dcmitype/StillImage" /><dc:title></dc:title></cc:Work></rdf:RDF></metadata><defs
     id="defs26" /><g
     style="fill:#000000"
     transform="matrix(0.5,0,0,0.5,-19.1,-17)"
     id="g4"><path
       style="fill:#000000"
       id="path6"
       d="m 50.381,53.349 -5.084,0 -0.415,0 -0.348,0 c -0.69,0 -1.25,0.56 -1.25,1.25 0,0.69 0.56,1.25 1.25,1.25 l 0.348,0 0.415,0 5.084,0 c 0.69,0 1.25,-0.56 1.25,-1.25 0,-0.69 -0.559,-1.25 -1.25,-1.25 z" /><path
       style="fill:#000000"
       id="path8"
       d="m 44.534,50.773 0.763,0 c 0.69,0 1.25,-0.56 1.25,-1.25 0,-0.69 -0.56,-1.25 -1.25,-1.25 l -0.763,0 c -0.69,0 -1.25,0.56 -1.25,1.25 0,0.69 0.56,1.25 1.25,1.25 z" /><path
       style="fill:#000000"
       id="path10"
       d="m 50.381,48.273 -0.763,0 c -0.69,0 -1.25,0.56 -1.25,1.25 0,0.69 0.56,1.25 1.25,1.25 l 0.763,0 c 0.69,0 1.25,-0.56 1.25,-1.25 0,-0.69 -0.559,-1.25 -1.25,-1.25 z" /><path
       style="fill:#000000"
       id="path12"
       d="m 55.466,48.273 -0.763,0 c -0.69,0 -1.25,0.56 -1.25,1.25 0,0.69 0.56,1.25 1.25,1.25 l 0.763,0 c 0.69,0 1.25,-0.56 1.25,-1.25 0,-0.69 -0.56,-1.25 -1.25,-1.25 z" /><path
       style="fill:#000000"
       id="path14"
       d="m 50.381,58.424 -5.084,0 -0.763,0 c -0.69,0 -1.25,0.56 -1.25,1.25 0,0.69 0.56,1.25 1.25,1.25 l 0.763,0 5.084,0 c 0.69,0 1.25,-0.56 1.25,-1.25 0,-0.69 -0.559,-1.25 -1.25,-1.25 z" /><path
       style="fill:#000000"
       id="path16"
       d="m 55.084,53.349 c -0.69,0 -1.25,0.56 -1.25,1.25 l 0,5.075 c 0,0.69 0.56,1.25 1.25,1.25 0.69,0 1.25,-0.56 1.25,-1.25 l 0,-5.075 c 0,-0.691 -0.559,-1.25 -1.25,-1.25 z" /><path
       style="fill:#000000"
       id="path18"
       d="m 60.55,38.122 -6.747,0 c -0.175,-0.711 -0.028,-1.485 0.458,-2.08 0.306,-0.374 0.369,-0.891 0.163,-1.327 C 54.217,34.278 53.777,34 53.294,34 l -6.588,0 c -0.375,0 -0.729,0.168 -0.967,0.458 -0.861,1.052 -1.202,2.381 -1.052,3.664 l -5.237,0 c -0.69,0 -1.25,0.56 -1.25,1.25 l 0,25.378 c 0,0.69 0.56,1.25 1.25,1.25 l 21.1,0 c 0.69,0 1.25,-0.56 1.25,-1.25 l 0,-25.378 c 0,-0.691 -0.559,-1.25 -1.25,-1.25 z M 47.378,36.5 l 3.962,0 c -0.311,1.422 0.018,2.958 0.986,4.141 0.598,0.73 0.696,1.736 0.294,2.557 l -3.96,0 C 48.971,41.776 48.641,40.24 47.673,39.057 47.075,38.327 46.977,37.321 47.378,36.5 Z m 11.922,27 -18.6,0 0,-22.878 5.026,0 c 0.005,0.006 0.008,0.013 0.013,0.019 0.599,0.731 0.689,1.736 0.286,2.557 l -1.49,0 c -0.69,0 -1.25,0.56 -1.25,1.25 0,0.69 0.56,1.25 1.25,1.25 l 2.171,0 6.588,0 2.172,0 c 0.69,0 1.25,-0.56 1.25,-1.25 0,-0.69 -0.56,-1.25 -1.25,-1.25 l -0.232,0 c 0.187,-0.853 0.15,-1.742 -0.123,-2.576 l 4.189,0 0,22.878 z" /></g></svg>